<?xml version="1.0" standalone="no"?>
<!DOCTYPE svg PUBLIC "-//W3C//DTD SVG 20010904//EN"
 "http://www.w3.org/TR/2001/REC-SVG-20010904/DTD/svg10.dtd">
<svg version="1.0" xmlns="http://www.w3.org/2000/svg"
 width="500.000000pt" height="499.000000pt" viewBox="0 0 500.000000 499.000000"
 preserveAspectRatio="xMidYMid meet">

<g transform="translate(0.000000,499.000000) scale(0.100000,-0.100000)"
fill="#000000" stroke="none">
<path d="M2235 4473 c-159 -21 -433 -99 -561 -160 l-59 -28 -3 -574 c-1 -315
1 -571 5 -569 181 87 248 102 463 102 197 1 269 -14 406 -79 75 -36 170 -120
179 -158 3 -12 5 -67 3 -122 l-3 -100 -188 0 -189 0 -16 50 c-14 40 -25 54
-56 72 -84 46 -223 37 -278 -17 -33 -33 -35 -58 -9 -92 22 -28 105 -55 266
-88 225 -46 358 -95 439 -162 l36 -29 0 -271 0 -271 -38 -36 c-59 -55 -137
-97 -237 -128 -85 -26 -101 -27 -285 -27 -240 -1 -310 12 -487 91 -10 4 -13
-117 -13 -586 l0 -590 76 -36 c154 -70 368 -129 569 -156 134 -17 482 -6 609
20 550 113 996 412 1301 871 59 90 165 292 165 316 0 12 -113 14 -757 16
l-758 3 -3 714 c-2 565 0 716 10 723 15 9 419 11 442 2 14 -5 16 -62 16 -535
l0 -529 365 0 364 0 3 -102 3 -103 175 -3 c96 -1 184 0 196 2 22 6 28 25 64
201 89 436 20 914 -189 1311 -232 442 -622 781 -1091 952 -239 87 -398 112
-684 111 -121 -1 -234 -4 -251 -6z m-385 -3153 c15 -28 -4 -60 -35 -60 -22 0
-25 4 -25 40 0 36 3 40 25 40 14 0 29 -8 35 -20z m118 13 c-10 -2 -18 -9 -18
-14 0 -5 8 -10 18 -10 16 -1 16 -2 0 -6 -10 -2 -18 -11 -18 -18 0 -7 8 -16 18
-18 10 -3 6 -5 -10 -6 -26 -1 -28 2 -28 39 0 37 2 40 28 39 16 -1 20 -3 10 -6z
m109 -20 l10 -28 8 28 c4 15 12 27 17 27 6 0 7 -7 4 -16 -3 -9 -9 -27 -12 -40
-3 -13 -12 -24 -19 -24 -7 0 -16 11 -19 24 -3 13 -9 31 -12 40 -3 9 -2 16 3
16 5 0 14 -12 20 -27z m151 20 c-10 -2 -18 -9 -18 -14 0 -5 8 -10 18 -10 16
-1 16 -2 0 -6 -10 -2 -18 -11 -18 -18 0 -7 8 -16 18 -18 10 -3 6 -5 -10 -6
-26 -1 -28 2 -28 39 0 37 2 40 28 39 16 -1 20 -3 10 -6z m108 -14 c1 -5 2 -18
3 -28 0 -11 9 -22 19 -24 10 -3 6 -5 -10 -6 -26 -1 -28 2 -28 41 0 23 3 38 8
34 4 -4 8 -12 8 -17z m169 -19 c0 -32 -2 -35 -30 -35 -26 0 -30 4 -33 29 -4
32 12 48 43 44 16 -2 20 -11 20 -38z m143 17 c3 -12 -4 -20 -17 -24 -12 -3
-21 -12 -21 -19 0 -8 -4 -14 -10 -14 -5 0 -10 18 -10 41 0 38 2 40 27 37 17
-2 29 -10 31 -21z m103 -4 l11 -28 10 28 c14 40 28 33 27 -15 0 -31 -3 -37 -8
-23 -8 19 -8 19 -19 0 -10 -17 -13 -18 -22 -5 -6 10 -10 11 -10 3 0 -7 -4 -13
-10 -13 -5 0 -10 18 -10 40 0 46 16 52 31 13z m167 20 c-10 -2 -18 -9 -18 -14
0 -5 8 -10 18 -10 16 -1 16 -2 0 -6 -26 -6 -22 -31 5 -36 16 -3 13 -5 -10 -6
-32 -1 -33 0 -33 39 0 37 2 40 28 39 16 -1 20 -3 10 -6z m121 -15 l15 -23 7
25 c6 20 7 17 8 -17 1 -48 -7 -54 -28 -20 l-15 22 -7 -25 c-6 -20 -7 -17 -8
18 -1 47 7 53 28 20z m164 15 c-7 -2 -13 -18 -13 -33 0 -16 -4 -32 -10 -35 -6
-4 -10 8 -10 29 0 19 -6 37 -12 39 -7 3 3 5 22 5 19 0 29 -2 23 -5z"/>
<path d="M1800 1300 c0 -25 4 -31 18 -28 11 2 17 12 17 28 0 16 -6 26 -17 28
-14 3 -18 -3 -18 -28z"/>
<path d="M2464 1315 c-7 -18 2 -45 15 -45 5 0 11 7 15 15 7 18 -2 45 -15 45
-5 0 -12 -7 -15 -15z"/>
<path d="M2610 1315 c0 -8 5 -15 10 -15 6 0 10 7 10 15 0 8 -4 15 -10 15 -5 0
-10 -7 -10 -15z"/>
<path d="M1275 4073 c-337 -259 -591 -634 -705 -1043 -54 -191 -65 -283 -65
-540 0 -217 3 -259 24 -365 49 -251 155 -517 286 -715 90 -137 142 -201 263
-323 103 -104 287 -256 297 -245 6 6 8 3298 2 3304 -1 2 -48 -31 -102 -73z"/>
<path d="M1610 2386 l0 -85 43 -6 c24 -4 61 -6 83 -4 21 1 55 2 75 1 34 -2 37
-5 44 -38 18 -97 62 -126 205 -132 147 -6 220 22 220 86 0 57 -61 86 -280 132
-148 32 -298 77 -347 106 l-43 25 0 -85z"/>
</g>
</svg>
